<svg width="112" height="15" viewBox="0 0 112 15" fill="none" xmlns="http://www.w3.org/2000/svg">
<path d="M4.12926 14L0.319602 0.909091H3.81605L5.79119 9.48722H5.89986L8.15625 0.909091H11.0071L13.2635 9.50639H13.3722L15.3537 0.909091H18.8438L15.0405 14H11.9915L9.63281 6.06108H9.53054L7.17188 14H4.12926ZM31.7333 7.45455C31.7333 8.89489 31.4563 10.1158 30.9023 11.1172C30.3484 12.1186 29.5984 12.8793 28.6523 13.3991C27.7106 13.919 26.6538 14.179 25.4819 14.179C24.3058 14.179 23.2468 13.9169 22.305 13.3928C21.3633 12.8686 20.6154 12.108 20.0614 11.1108C19.5117 10.1094 19.2369 8.89062 19.2369 7.45455C19.2369 6.0142 19.5117 4.79332 20.0614 3.7919C20.6154 2.79048 21.3633 2.02983 22.305 1.50994C23.2468 0.990056 24.3058 0.730113 25.4819 0.730113C26.6538 0.730113 27.7106 0.990056 28.6523 1.50994C29.5984 2.02983 30.3484 2.79048 30.9023 3.7919C31.4563 4.79332 31.7333 6.0142 31.7333 7.45455ZM28.4989 7.45455C28.4989 6.60227 28.3775 5.8821 28.1346 5.29403C27.896 4.70597 27.5508 4.26065 27.0991 3.9581C26.6516 3.65554 26.1126 3.50426 25.4819 3.50426C24.8555 3.50426 24.3164 3.65554 23.8647 3.9581C23.413 4.26065 23.0657 4.70597 22.8228 5.29403C22.5842 5.8821 22.4648 6.60227 22.4648 7.45455C22.4648 8.30682 22.5842 9.02699 22.8228 9.61506C23.0657 10.2031 23.413 10.6484 23.8647 10.951C24.3164 11.2536 24.8555 11.4048 25.4819 11.4048C26.1126 11.4048 26.6516 11.2536 27.0991 10.951C27.5508 10.6484 27.896 10.2031 28.1346 9.61506C28.3775 9.02699 28.4989 8.30682 28.4989 7.45455ZM45.9364 7.45455C45.9364 8.89489 45.6594 10.1158 45.1055 11.1172C44.5515 12.1186 43.8015 12.8793 42.8555 13.3991C41.9137 13.919 40.8569 14.179 39.685 14.179C38.5089 14.179 37.4499 13.9169 36.5082 13.3928C35.5664 12.8686 34.8185 12.108 34.2646 11.1108C33.7148 10.1094 33.44 8.89062 33.44 7.45455C33.44 6.0142 33.7148 4.79332 34.2646 3.7919C34.8185 2.79048 35.5664 2.02983 36.5082 1.50994C37.4499 0.990056 38.5089 0.730113 39.685 0.730113C40.8569 0.730113 41.9137 0.990056 42.8555 1.50994C43.8015 2.02983 44.5515 2.79048 45.1055 3.7919C45.6594 4.79332 45.9364 6.0142 45.9364 7.45455ZM42.7021 7.45455C42.7021 6.60227 42.5806 5.8821 42.3377 5.29403C42.0991 4.70597 41.7539 4.26065 41.3022 3.9581C40.8548 3.65554 40.3157 3.50426 39.685 3.50426C39.0586 3.50426 38.5195 3.65554 38.0678 3.9581C37.6161 4.26065 37.2688 4.70597 37.0259 5.29403C36.7873 5.8821 36.668 6.60227 36.668 7.45455C36.668 8.30682 36.7873 9.02699 37.0259 9.61506C37.2688 10.2031 37.6161 10.6484 38.0678 10.951C38.5195 11.2536 39.0586 11.4048 39.685 11.4048C40.3157 11.4048 40.8548 11.2536 41.3022 10.951C41.7539 10.6484 42.0991 10.2031 42.3377 9.61506C42.5806 9.02699 42.7021 8.30682 42.7021 7.45455ZM47.739 14V12.1974L54.0991 3.47869H47.7454V0.909091H58.1005V2.71165L51.7404 11.4304H58.0941V14H47.739ZM63.9029 14V0.909091H69.3617C70.3418 0.909091 71.1621 1.04758 71.8226 1.32457C72.4874 1.60156 72.986 1.98935 73.3184 2.48793C73.655 2.98651 73.8233 3.56392 73.8233 4.22017C73.8233 4.71875 73.7189 5.16406 73.5101 5.55611C73.3013 5.94389 73.0137 6.26562 72.6472 6.52131C72.2807 6.77699 71.8567 6.95597 71.3752 7.05824V7.18608C71.9036 7.21165 72.3915 7.3544 72.839 7.61435C73.2907 7.87429 73.6529 8.23651 73.9256 8.70099C74.1983 9.16122 74.3347 9.70668 74.3347 10.3374C74.3347 11.0405 74.1557 11.669 73.7978 12.223C73.4398 12.7727 72.9221 13.2074 72.2445 13.527C71.5669 13.8423 70.7445 14 69.7772 14H63.9029ZM67.0669 11.4496H69.0229C69.709 11.4496 70.214 11.3196 70.5378 11.0597C70.8659 10.7997 71.03 10.4375 71.03 9.97301C71.03 9.63636 70.9512 9.34659 70.7935 9.10369C70.6358 8.85653 70.4121 8.6669 70.1223 8.5348C69.8326 8.39844 69.4853 8.33026 69.0804 8.33026H67.0669V11.4496ZM67.0669 6.29119H68.8184C69.1635 6.29119 69.4703 6.23366 69.7388 6.11861C70.0073 6.00355 70.2161 5.83736 70.3652 5.62003C70.5186 5.4027 70.5953 5.14062 70.5953 4.83381C70.5953 4.39489 70.4398 4.04972 70.1287 3.7983C69.8176 3.54688 69.3979 3.42116 68.8695 3.42116H67.0669V6.29119ZM75.856 14V0.909091H79.0201V11.4304H84.4661V14H75.856ZM97.9501 7.45455C97.9501 8.89489 97.6731 10.1158 97.1191 11.1172C96.5652 12.1186 95.8152 12.8793 94.8691 13.3991C93.9274 13.919 92.8706 14.179 91.6987 14.179C90.5225 14.179 89.4636 13.9169 88.5218 13.3928C87.5801 12.8686 86.8322 12.108 86.2782 11.1108C85.7285 10.1094 85.4537 8.89062 85.4537 7.45455C85.4537 6.0142 85.7285 4.79332 86.2782 3.7919C86.8322 2.79048 87.5801 2.02983 88.5218 1.50994C89.4636 0.990056 90.5225 0.730113 91.6987 0.730113C92.8706 0.730113 93.9274 0.990056 94.8691 1.50994C95.8152 2.02983 96.5652 2.79048 97.1191 3.7919C97.6731 4.79332 97.9501 6.0142 97.9501 7.45455ZM94.7157 7.45455C94.7157 6.60227 94.5943 5.8821 94.3514 5.29403C94.1127 4.70597 93.7676 4.26065 93.3159 3.9581C92.8684 3.65554 92.3294 3.50426 91.6987 3.50426C91.0723 3.50426 90.5332 3.65554 90.0815 3.9581C89.6298 4.26065 89.2825 4.70597 89.0396 5.29403C88.801 5.8821 88.6816 6.60227 88.6816 7.45455C88.6816 8.30682 88.801 9.02699 89.0396 9.61506C89.2825 10.2031 89.6298 10.6484 90.0815 10.951C90.5332 11.2536 91.0723 11.4048 91.6987 11.4048C92.3294 11.4048 92.8684 11.2536 93.3159 10.951C93.7676 10.6484 94.1127 10.2031 94.3514 9.61506C94.5943 9.02699 94.7157 8.30682 94.7157 7.45455ZM108.388 5.18537C108.316 4.9169 108.209 4.6804 108.069 4.47585C107.928 4.26705 107.756 4.0902 107.551 3.94531C107.346 3.80043 107.112 3.69176 106.848 3.61932C106.584 3.54261 106.294 3.50426 105.979 3.50426C105.344 3.50426 104.794 3.65767 104.329 3.96449C103.869 4.27131 103.513 4.71875 103.262 5.30682C103.01 5.89062 102.885 6.60014 102.885 7.43537C102.885 8.27486 103.006 8.99077 103.249 9.5831C103.492 10.1754 103.844 10.6271 104.304 10.9382C104.764 11.2493 105.322 11.4048 105.979 11.4048C106.558 11.4048 107.048 11.3111 107.449 11.1236C107.854 10.9318 108.16 10.6612 108.369 10.3118C108.578 9.96236 108.682 9.55114 108.682 9.07812L109.27 9.14844H106.087V6.84091H111.731V8.57315C111.731 9.74503 111.482 10.7486 110.983 11.5838C110.489 12.419 109.807 13.0604 108.938 13.5078C108.073 13.9553 107.078 14.179 105.953 14.179C104.704 14.179 103.607 13.9084 102.661 13.3672C101.715 12.826 100.978 12.0547 100.449 11.0533C99.921 10.0476 99.6568 8.8544 99.6568 7.47372C99.6568 6.39986 99.8166 5.44744 100.136 4.61648C100.456 3.78125 100.901 3.07386 101.472 2.49432C102.047 1.91477 102.712 1.47585 103.466 1.17756C104.225 0.879261 105.041 0.730113 105.915 0.730113C106.673 0.730113 107.378 0.838778 108.03 1.05611C108.687 1.27344 109.266 1.58026 109.769 1.97656C110.276 2.37287 110.687 2.84375 111.003 3.3892C111.318 3.93466 111.514 4.53338 111.591 5.18537H108.388Z" fill="white"/>
</svg>
